<?xml version="1.0" encoding="utf-8"?>
<!-- Generator: Adobe Illustrator 22.0.0, SVG Export Plug-In . SVG Version: 6.00 Build 0)  -->
<svg version="1.1" id="Layer_1" xmlns="http://www.w3.org/2000/svg" xmlns:xlink="http://www.w3.org/1999/xlink" x="0px" y="0px"
	 viewBox="0 0 31 31" style="enable-background:new 0 0 31 31;" xml:space="preserve">
<style type="text/css">
	.st0{fill:#191414;}
	.st1{fill:#FFFFFF;}
	.st2{clip-path:url(#SVGID_3_);}
	.st3{clip-path:url(#SVGID_6_);fill:#FFFFFF;}
	.st4{clip-path:url(#SVGID_8_);fill:#FFFFFF;}
	.st5{clip-path:url(#SVGID_10_);fill:#FFFFFF;}
</style>
<g>
	<g>
		<g>
			<path class="st0" d="M30.5,15.5c0-8.3-6.7-15-15-15s-15,6.7-15,15C0.5,23,6,29.2,13.2,30.3V19.8H9.3v-4.3h3.8v-3.3
				c0-3.8,2.2-5.8,5.7-5.8c1.6,0,3.4,0.3,3.4,0.3v3.7h-1.9c-1.9,0-2.4,1.2-2.4,2.3v2.8H22l-0.7,4.3h-3.5v10.5
				C25,29.2,30.5,23,30.5,15.5z"/>
		</g>
		<g>
			<path class="st1" d="M21.3,19.8l0.7-4.3h-4.2v-2.8c0-1.2,0.6-2.3,2.4-2.3h1.9V6.7c0,0-1.7-0.3-3.4-0.3c-3.4,0-5.7,2.1-5.7,5.8
				v3.3H9.3v4.3h3.8v10.5c0.8,0.1,1.5,0.2,2.3,0.2s1.6-0.1,2.3-0.2V19.8H21.3z"/>
		</g>
	</g>
</g>
</svg>
