<?xml version="1.0" encoding="utf-8"?>
<!-- Generator: Adobe Illustrator 22.0.0, SVG Export Plug-In . SVG Version: 6.00 Build 0)  -->
<svg version="1.1" id="Layer_1" xmlns="http://www.w3.org/2000/svg" xmlns:xlink="http://www.w3.org/1999/xlink" x="0px" y="0px"
	 viewBox="0 0 31 31" style="enable-background:new 0 0 31 31;" xml:space="preserve">
<style type="text/css">
	.st0{fill:#191414;}
	.st1{fill:#FFFFFF;}
	.st2{clip-path:url(#SVGID_3_);}
	.st3{clip-path:url(#SVGID_6_);fill:#FFFFFF;}
	.st4{clip-path:url(#SVGID_8_);fill:#FFFFFF;}
	.st5{clip-path:url(#SVGID_10_);fill:#FFFFFF;}
</style>
<g>
	<g>
		<g>
			<g>
				<g>
					<path class="st0" d="M15.5,0.5c-8.3,0-15,6.7-15,15c0,8.3,6.7,15,15,15c8.3,0,15-6.7,15-15C30.5,7.2,23.8,0.5,15.5,0.5z"/>
				</g>
			</g>
		</g>
	</g>
	<g>
		<g>
			<g>
				<path class="st1" d="M8.5,23.7c-0.2-0.1-0.4-0.4-0.4-0.7C8,22.7,8,22.3,8,21.8v-0.7c0-0.5,0-0.9,0.1-1.2
					c0.1-0.3,0.3-0.5,0.5-0.7c0.2-0.1,0.5-0.2,0.8-0.2c0.3,0,0.6,0.1,0.8,0.2c0.2,0.1,0.4,0.4,0.4,0.7c0.1,0.3,0.1,0.7,0.1,1.2v0.7
					c0,0.5,0,0.9-0.1,1.2c-0.1,0.3-0.2,0.5-0.4,0.7c-0.2,0.1-0.5,0.2-0.8,0.2C9,23.9,8.7,23.8,8.5,23.7z M9.7,22.9
					c0.1-0.1,0.1-0.4,0.1-0.7v-1.4c0-0.3,0-0.6-0.1-0.7c-0.1-0.2-0.2-0.2-0.3-0.2c-0.1,0-0.2,0.1-0.3,0.2C9,20.2,9,20.4,9,20.8v1.4
					c0,0.3,0,0.6,0.1,0.7c0.1,0.1,0.2,0.2,0.3,0.2C9.5,23.2,9.6,23.1,9.7,22.9z"/>
				<path class="st1" d="M24.4,21.8v0.2c0,0.3,0,0.5,0,0.7c0,0.1,0.1,0.3,0.1,0.3c0.1,0.1,0.1,0.1,0.3,0.1c0.2,0,0.3-0.1,0.3-0.2
					c0.1-0.1,0.1-0.3,0.1-0.6l0.9,0.1c0,0,0,0.1,0,0.2c0,0.4-0.1,0.7-0.3,1c-0.2,0.2-0.6,0.3-1,0.3c-0.5,0-0.9-0.2-1.1-0.5
					c-0.2-0.3-0.3-0.8-0.3-1.5v-0.8c0-0.7,0.1-1.2,0.3-1.5c0.2-0.3,0.6-0.5,1.1-0.5c0.4,0,0.6,0.1,0.8,0.2c0.2,0.1,0.3,0.3,0.4,0.6
					c0.1,0.3,0.1,0.7,0.1,1.1v0.8H24.4z M24.6,19.9c-0.1,0.1-0.1,0.2-0.1,0.3c0,0.1,0,0.4,0,0.7v0.3h0.8v-0.3c0-0.3,0-0.5,0-0.7
					c0-0.2-0.1-0.3-0.1-0.3c-0.1-0.1-0.1-0.1-0.2-0.1C24.7,19.8,24.6,19.8,24.6,19.9z"/>
				<path class="st1" d="M6,21.8l-1.2-4.2h1l0.4,1.9c0.1,0.5,0.2,0.9,0.2,1.2h0c0-0.2,0.1-0.6,0.2-1.2l0.4-1.9h1L7,21.8v2H6V21.8z"
					/>
				<path class="st1" d="M14.2,19.2v4.6h-0.8l-0.1-0.6h0c-0.2,0.4-0.5,0.6-1,0.6c-0.3,0-0.5-0.1-0.7-0.3c-0.1-0.2-0.2-0.5-0.2-0.9
					v-3.4h1v3.4c0,0.2,0,0.4,0.1,0.4c0,0.1,0.1,0.1,0.2,0.1c0.1,0,0.2,0,0.3-0.1c0.1-0.1,0.1-0.1,0.2-0.2v-3.6H14.2z"/>
				<path class="st1" d="M19.5,19.2v4.6h-0.8l-0.1-0.6h0c-0.2,0.4-0.5,0.6-1,0.6c-0.3,0-0.5-0.1-0.7-0.3c-0.1-0.2-0.2-0.5-0.2-0.9
					v-3.4h1v3.4c0,0.2,0,0.4,0.1,0.4c0,0.1,0.1,0.1,0.2,0.1c0.1,0,0.2,0,0.3-0.1c0.1-0.1,0.1-0.1,0.2-0.2v-3.6H19.5z"/>
				<path class="st1" d="M17,18.3h-1v5.5h-1v-5.5h-1v-0.8H17V18.3z"/>
				<path class="st1" d="M22.9,19.9c-0.1-0.3-0.2-0.5-0.3-0.6c-0.1-0.1-0.3-0.2-0.6-0.2c-0.2,0-0.4,0.1-0.5,0.2
					c-0.2,0.1-0.3,0.2-0.4,0.4h0l0-2.4h-1v6.5h0.9l0.1-0.4h0c0.1,0.2,0.2,0.3,0.4,0.4c0.2,0.1,0.3,0.1,0.5,0.1
					c0.3,0,0.6-0.2,0.8-0.5c0.2-0.3,0.2-0.8,0.2-1.5v-0.7C23,20.6,22.9,20.2,22.9,19.9z M21.9,21.8c0,0.3,0,0.6,0,0.8
					c0,0.2-0.1,0.3-0.1,0.4c-0.1,0.1-0.2,0.1-0.3,0.1c-0.1,0-0.2,0-0.2-0.1c-0.1,0-0.1-0.1-0.2-0.2v-2.6c0-0.1,0.1-0.2,0.2-0.3
					c0.1-0.1,0.2-0.1,0.3-0.1c0.1,0,0.2,0,0.2,0.1c0.1,0.1,0.1,0.2,0.1,0.4c0,0.2,0,0.5,0,0.8V21.8z"/>
			</g>
		</g>
		<g>
			<path class="st1" d="M21.5,8.5c-0.1-0.5-0.6-1-1.1-1.1c-1-0.3-4.9-0.3-4.9-0.3s-3.9,0-4.9,0.3c-0.5,0.1-1,0.6-1.1,1.1
				c-0.3,1-0.3,3-0.3,3s0,2,0.3,3c0.1,0.5,0.6,1,1.1,1.1c1,0.3,4.9,0.3,4.9,0.3s3.9,0,4.9-0.3c0.5-0.1,1-0.6,1.1-1.1
				c0.3-1,0.3-3,0.3-3S21.7,9.5,21.5,8.5z"/>
			<g>
				<polygon class="st0" points="14.3,13.4 14.3,9.6 17.5,11.5 				"/>
			</g>
		</g>
	</g>
</g>
</svg>
