<?xml version="1.0" encoding="utf-8"?>
<!-- Generator: Adobe Illustrator 22.0.0, SVG Export Plug-In . SVG Version: 6.00 Build 0)  -->
<svg version="1.1" id="Layer_1" xmlns="http://www.w3.org/2000/svg" xmlns:xlink="http://www.w3.org/1999/xlink" x="0px" y="0px"
	 viewBox="0 0 31 31" style="enable-background:new 0 0 31 31;" xml:space="preserve">
<style type="text/css">
	.st0{fill:#191414;}
	.st1{fill:#FFFFFF;}
	.st2{clip-path:url(#SVGID_3_);}
	.st3{clip-path:url(#SVGID_6_);fill:#FFFFFF;}
	.st4{clip-path:url(#SVGID_8_);fill:#FFFFFF;}
	.st5{clip-path:url(#SVGID_10_);fill:#FFFFFF;}
</style>
<g>
	<g>
		<g>
			<g>
				<g>
					<path class="st0" d="M15.5,0.5c-8.3,0-15,6.7-15,15c0,8.3,6.7,15,15,15c8.3,0,15-6.7,15-15C30.5,7.2,23.8,0.5,15.5,0.5z"/>
				</g>
			</g>
		</g>
	</g>
	<path class="st1" d="M12.2,22.7c6.7,0,10.3-5.5,10.3-10.3c0-0.2,0-0.3,0-0.5c0.7-0.5,1.3-1.1,1.8-1.9c-0.6,0.3-1.3,0.5-2.1,0.6
		c0.7-0.4,1.3-1.2,1.6-2c-0.7,0.4-1.5,0.7-2.3,0.9c-0.7-0.7-1.6-1.1-2.6-1.1c-2,0-3.6,1.6-3.6,3.6c0,0.3,0,0.6,0.1,0.8
		c-3-0.2-5.7-1.6-7.5-3.8c-0.3,0.5-0.5,1.2-0.5,1.8c0,1.3,0.6,2.4,1.6,3c-0.6,0-1.2-0.2-1.6-0.5c0,0,0,0,0,0c0,1.8,1.2,3.2,2.9,3.5
		c-0.3,0.1-0.6,0.1-1,0.1c-0.2,0-0.5,0-0.7-0.1c0.5,1.4,1.8,2.5,3.4,2.5c-1.2,1-2.8,1.5-4.5,1.5c-0.3,0-0.6,0-0.9-0.1
		C8.3,22.1,10.2,22.7,12.2,22.7"/>
</g>
</svg>
