<?xml version="1.0" encoding="utf-8"?>
<!-- Generator: Adobe Illustrator 22.0.0, SVG Export Plug-In . SVG Version: 6.00 Build 0)  -->
<svg version="1.1" id="Layer_1" xmlns="http://www.w3.org/2000/svg" xmlns:xlink="http://www.w3.org/1999/xlink" x="0px" y="0px"
	 viewBox="0 0 31 31" style="enable-background:new 0 0 31 31;" xml:space="preserve">
<style type="text/css">
	.st0{fill:#191414;}
	.st1{fill:#FFFFFF;}
	.st2{clip-path:url(#SVGID_3_);}
	.st3{clip-path:url(#SVGID_6_);fill:#FFFFFF;}
	.st4{clip-path:url(#SVGID_8_);fill:#FFFFFF;}
	.st5{clip-path:url(#SVGID_10_);fill:#FFFFFF;}
</style>
<g>
	<g>
		<g>
			<g>
				<g>
					<path class="st0" d="M15.5,0.5c-8.3,0-15,6.7-15,15c0,8.3,6.7,15,15,15c8.3,0,15-6.7,15-15C30.5,7.2,23.8,0.5,15.5,0.5z"/>
				</g>
			</g>
		</g>
	</g>
	<g>
		<path class="st1" d="M19.1,7.5h-7.1c-2.4,0-4.4,2-4.4,4.4v7.1c0,2.4,2,4.4,4.4,4.4h7.1c2.4,0,4.4-2,4.4-4.4v-7.1
			C23.5,9.5,21.5,7.5,19.1,7.5z M22.1,19.1c0,1.6-1.3,3-3,3h-7.1c-1.6,0-3-1.3-3-3v-7.1c0-1.6,1.3-3,3-3h7.1c1.6,0,3,1.3,3,3
			L22.1,19.1L22.1,19.1z"/>
		<path class="st1" d="M15.5,11.4c-2.3,0-4.1,1.8-4.1,4.1c0,2.3,1.8,4.1,4.1,4.1s4.1-1.8,4.1-4.1C19.6,13.2,17.8,11.4,15.5,11.4z
			 M15.5,18.2c-1.5,0-2.7-1.2-2.7-2.7c0-1.5,1.2-2.7,2.7-2.7s2.7,1.2,2.7,2.7C18.2,17,17,18.2,15.5,18.2z"/>
		<path class="st1" d="M19.8,10.2c-0.3,0-0.5,0.1-0.7,0.3c-0.2,0.2-0.3,0.5-0.3,0.7c0,0.3,0.1,0.5,0.3,0.7c0.2,0.2,0.5,0.3,0.7,0.3
			c0.3,0,0.5-0.1,0.7-0.3c0.2-0.2,0.3-0.5,0.3-0.7c0-0.3-0.1-0.5-0.3-0.7C20.3,10.3,20.1,10.2,19.8,10.2z"/>
	</g>
</g>
</svg>
