<?xml version="1.0" encoding="utf-8"?>
<!-- Generator: Adobe Illustrator 22.0.0, SVG Export Plug-In . SVG Version: 6.00 Build 0)  -->
<svg version="1.1" id="Layer_1" xmlns="http://www.w3.org/2000/svg" xmlns:xlink="http://www.w3.org/1999/xlink" x="0px" y="0px"
	 viewBox="0 0 31 31" style="enable-background:new 0 0 31 31;" xml:space="preserve">
<style type="text/css">
	.st0{fill:#191414;}
	.st1{fill:#FFFFFF;}
	.st2{clip-path:url(#SVGID_3_);}
	.st3{clip-path:url(#SVGID_6_);fill:#FFFFFF;}
	.st4{clip-path:url(#SVGID_8_);fill:#FFFFFF;}
	.st5{clip-path:url(#SVGID_10_);fill:#FFFFFF;}
</style>
<g>
	<g>
		<g>
			<defs>
				<path id="SVGID_1_" d="M15.5,30.5c8.3,0,15-6.7,15-15s-6.7-15-15-15s-15,6.7-15,15S7.2,30.5,15.5,30.5L15.5,30.5z"/>
			</defs>
			<defs>
				<path id="SVGID_2_" d="M15.5,30.5"/>
			</defs>
			<use xlink:href="#SVGID_1_"  style="overflow:visible;fill-rule:evenodd;clip-rule:evenodd;fill:#191414;"/>
			<use xlink:href="#SVGID_2_"  style="overflow:visible;fill-rule:evenodd;clip-rule:evenodd;fill:#191414;"/>
			<clipPath id="SVGID_3_">
				<use xlink:href="#SVGID_1_"  style="overflow:visible;"/>
			</clipPath>
			<clipPath id="SVGID_4_" class="st2">
				<use xlink:href="#SVGID_2_"  style="overflow:visible;"/>
			</clipPath>
		</g>
		<g>
			<defs>
				<path id="SVGID_5_" d="M19.5,14.5c-1.1,0-1.6,0.8-1.6,2.1c0,1.2,0.6,2.1,1.6,2.1c1.2,0,1.6-1.1,1.6-2.1
					C21.1,15.5,20.6,14.5,19.5,14.5 M16.7,11.3H18v3.1h0c0.3-0.6,1.1-0.9,1.7-0.9c1.8,0,2.7,1.4,2.7,3.2c0,1.6-0.8,3.1-2.5,3.1
					c-0.8,0-1.6-0.2-2-1h0v0.8h-1.2L16.7,11.3L16.7,11.3"/>
			</defs>
			<clipPath id="SVGID_6_">
				<use xlink:href="#SVGID_5_"  style="overflow:visible;"/>
			</clipPath>
			<rect x="16.4" y="11" class="st3" width="6.3" height="9"/>
		</g>
		<g>
			<defs>
				<path id="SVGID_7_" d="M27.1,15.6c-0.1-0.7-0.6-1.1-1.3-1.1c-0.7,0-1.6,0.4-1.6,2.2c0,1,0.4,2.1,1.5,2.1c0.7,0,1.3-0.5,1.4-1.4
					h1.3c-0.2,1.6-1.2,2.4-2.7,2.4c-1.8,0-2.8-1.3-2.8-3.1c0-1.8,1-3.2,2.9-3.2c1.3,0,2.5,0.7,2.6,2.2L27.1,15.6L27.1,15.6"/>
			</defs>
			<clipPath id="SVGID_8_">
				<use xlink:href="#SVGID_7_"  style="overflow:visible;"/>
			</clipPath>
			<rect x="22.6" y="13.1" class="st4" width="6.1" height="6.9"/>
		</g>
		<g>
			<defs>
				<polyline id="SVGID_9_" points="12.2,19.6 2.6,19.6 7.1,11.3 16.7,11.3 12.2,19.6 				"/>
			</defs>
			<clipPath id="SVGID_10_">
				<use xlink:href="#SVGID_9_"  style="overflow:visible;"/>
			</clipPath>
			<rect x="2.3" y="11" class="st5" width="14.6" height="8.8"/>
		</g>
	</g>
</g>
</svg>
