<?xml version="1.0" encoding="utf-8"?>
<!-- Generator: Adobe Illustrator 22.0.0, SVG Export Plug-In . SVG Version: 6.00 Build 0)  -->
<svg version="1.1" id="Layer_1" xmlns="http://www.w3.org/2000/svg" xmlns:xlink="http://www.w3.org/1999/xlink" x="0px" y="0px"
	 viewBox="0 0 31 31" style="enable-background:new 0 0 31 31;" xml:space="preserve">
<style type="text/css">
	.st0{fill:#191414;}
	.st1{fill:#FFFFFF;}
	.st2{clip-path:url(#SVGID_3_);}
	.st3{clip-path:url(#SVGID_6_);fill:#FFFFFF;}
	.st4{clip-path:url(#SVGID_8_);fill:#FFFFFF;}
	.st5{clip-path:url(#SVGID_10_);fill:#FFFFFF;}
</style>
<g>
	<g>
		<g>
			<g>
				<g>
					<path class="st0" d="M15.5,0.5c-8.3,0-15,6.7-15,15c0,8.3,6.7,15,15,15c8.3,0,15-6.7,15-15C30.5,7.2,23.8,0.5,15.5,0.5z
						 M22.4,22.1c-0.3,0.4-0.8,0.6-1.3,0.3c-3.5-2.2-8-2.6-13.2-1.4c-0.5,0.1-1-0.2-1.1-0.7c-0.1-0.5,0.2-1,0.7-1.1
						c5.7-1.3,10.6-0.7,14.6,1.7C22.5,21.1,22.6,21.7,22.4,22.1z M24.2,18.1c-0.3,0.6-1.1,0.7-1.6,0.4c-4-2.5-10.2-3.2-14.9-1.7
						c-0.6,0.2-1.3-0.2-1.5-0.8C6,15.3,6.4,14.6,7,14.5c5.4-1.7,12.2-0.9,16.9,2C24.4,16.8,24.6,17.5,24.2,18.1z M24.4,13.8
						c-4.8-2.9-12.8-3.1-17.4-1.7c-0.7,0.2-1.5-0.2-1.7-0.9C5,10.4,5.4,9.6,6.1,9.4c5.3-1.6,14.1-1.3,19.7,2
						c0.7,0.4,0.9,1.3,0.5,1.9C25.9,14,25,14.2,24.4,13.8z"/>
				</g>
			</g>
		</g>
	</g>
</g>
</svg>
